<svg width="52" height="52" viewBox="0 0 52 52" fill="none" xmlns="http://www.w3.org/2000/svg">
<path d="M26 6.50001C24.6805 6.49827 23.3822 6.83128 22.2265 7.46788C21.0707 8.10448 20.0954 9.02387 19.3917 10.14C18.7534 9.986 18.0982 9.9132 17.4417 9.92334C15.466 9.99672 13.5919 10.8176 12.1983 12.22C11.2837 13.1526 10.6179 14.2999 10.262 15.5568C9.90618 16.8136 9.87167 18.1397 10.1617 19.4133C9.04461 20.1125 8.12291 21.0833 7.48259 22.2351C6.84228 23.3869 6.50423 24.6822 6.5 26C6.50057 27.3215 6.83687 28.6212 7.47736 29.7771C8.11784 30.933 9.04151 31.9072 10.1617 32.6083C9.87442 33.8838 9.91237 35.211 10.272 36.4679C10.6317 37.7249 11.3015 38.8712 12.22 39.8017C13.1548 40.7345 14.3112 41.4147 15.5807 41.7785C16.8502 42.1423 18.1913 42.1778 19.4783 41.8817C20.1767 42.9815 21.1395 43.8888 22.2787 44.5208C23.4179 45.1529 24.6973 45.4895 26 45.5C27.3138 45.5004 28.6064 45.1689 29.7578 44.5364C30.9093 43.9038 31.8823 42.9907 32.5867 41.8817C33.8694 42.1691 35.2039 42.1276 36.4663 41.7612C37.7287 41.3948 38.878 40.7153 39.8075 39.7858C40.737 38.8563 41.4165 37.707 41.7829 36.4446C42.1493 35.1822 42.1907 33.8477 41.9033 32.565C43.0052 31.8601 43.9122 30.8894 44.5407 29.7422C45.1692 28.595 45.4991 27.3081 45.5 26C45.5004 24.6862 45.1689 23.3936 44.5364 22.2422C43.9038 21.0907 42.9907 20.1177 41.8817 19.4133C42.1691 18.1306 42.1276 16.7961 41.7612 15.5337C41.3948 14.2713 40.7153 13.122 39.7858 12.1925C38.8563 11.263 37.707 10.5835 36.4446 10.2171C35.1822 9.85071 33.8477 9.80927 32.565 10.0967C31.8601 8.99477 30.8894 8.08784 29.7422 7.45933C28.5949 6.83083 27.3081 6.50094 26 6.50001Z" fill="#27AE60"/>
<path d="M32.4999 21.6667L23.8333 30.3333" stroke="white" stroke-width="3" stroke-linecap="round" stroke-linejoin="round"/>
<path d="M19.5 26L23.8333 30.3333" stroke="white" stroke-width="3" stroke-linecap="round" stroke-linejoin="round"/>
</svg>
